<svg id="Layer_1" data-name="Layer 1" xmlns="http://www.w3.org/2000/svg" viewBox="0 0 1040 400"><defs><clipPath id="clip-path"><path class="cls-1" d="M682.81 319.42h.07l-.25-.11a15.43 15.43 0 00-1.8-1c-8-4.79-36.55-28.34-34-119a129.66 129.66 0 00.86-14.83 127.53 127.53 0 00-108-126v-16a21.5 21.5 0 00-43 0v16.69a127.53 127.53 0 00-104 125.33c0 2.43.07 4.83.2 7.23 0 .22 0 .44.05.66 4.24 97-25.92 121.33-33.92 126a15.23 15.23 0 00-1.54.83l-.37.16h.09a15.52 15.52 0 00-7.24 13.13v.88A15.56 15.56 0 00365.5 349h95.38a62.79 62.79 0 00114.58 0h99a15.56 15.56 0 0015.56-15.56v-.88a15.52 15.52 0 00-7.21-13.14z"/></clipPath><clipPath id="clip-path-2"><path class="cls-2" d="M504.1 75.5h33.37v25.66h-33.33A1.6 1.6 0 01503 98.5l7.94-9a1.6 1.6 0 000-2.11l-8-9.2a1.61 1.61 0 011.2-2.66z"/></clipPath><clipPath id="clip-path-3"><path class="cls-3" d="M518.44 181.55a1.07 1.07 0 011.07 1.07v36.44h-2.14v-36.45a1.07 1.07 0 011.07-1.06z"/></clipPath><clipPath id="clip-path-4"><path class="cls-4" d="M495.07 183.72h22.3v17.15h-22.28a1.07 1.07 0 01-1.09-1.07 1.09 1.09 0 01.26-.71l5.31-6a1.08 1.08 0 000-1.42l-5.35-6.14a1.07 1.07 0 01.1-1.51 1.1 1.1 0 01.75-.3z"/></clipPath><clipPath id="clip-path-5"><path class="cls-3" d="M475.67 272.71l85.75-.1 21.57 117.88-128.62.15 21.3-117.93z"/></clipPath><clipPath id="clip-path-6"><path class="cls-3" transform="rotate(-.07 490.917 311.334)" d="M442.51 267.3h146.84v128.62H442.51z"/></clipPath><clipPath id="clip-path-7"><path class="cls-3" transform="rotate(-.07 490.917 311.334)" d="M453.23 272.66h129.69v117.9H453.23z"/></clipPath><clipPath id="clip-path-8"><path class="cls-3" d="M452.22 389.57l132.91-.16a2.14 2.14 0 012.15 2.14v4.29l-137.19.16v-4.29a2.14 2.14 0 012.13-2.14z"/></clipPath><clipPath id="clip-path-9"><path class="cls-3" d="M508 348.27a22.51 22.51 0 1121.18 0l12 47.64-45 .06z"/></clipPath><clipPath id="clip-path-10"><path class="cls-3" d="M467.07 254.5l102.9-.12-8.55 18.23-85.75.1-8.6-18.21z"/></clipPath><clipPath id="clip-path-11"><path class="cls-3" d="M506.72 240.52v-19.3a2.14 2.14 0 012.14-2.14h19.3a2.14 2.14 0 012.14 2.15v19.29h15v-19.29a2.14 2.14 0 012.14-2.15h20.37a2.14 2.14 0 012.14 2.14v33.23l-102.9.12v-33.3a2.14 2.14 0 012.14-2.15h20.36a2.14 2.14 0 012.15 2.14v19.29z"/></clipPath><style>.cls-1{fill:#454f5b}.cls-2{fill:#637381}.cls-3{fill:none}.cls-4{fill:#ec5632}.cls-8{fill:#212b36;opacity:.5}.cls-9{fill:#5c6b77}.cls-10{fill:#f9fafb}.cls-11{fill:#86dfc9}.cls-12{fill:#53b53d}.cls-13{fill:#ef7457}.cls-14{fill:#fff}.cls-16{fill:#b8bdcc}.cls-22{fill:#c4cdd5}.cls-28{fill:#ffc95c}</style></defs><path fill="#212b36" d="M-19.67-5.42h1068.6v410.84H-19.67z"/><path class="cls-2" d="M682.81 319.42h.07l-.25-.11a15.43 15.43 0 00-1.8-1c-8-4.79-36.55-28.34-34-119a129.66 129.66 0 00.86-14.83 127.53 127.53 0 00-108-126v-16a21.5 21.5 0 00-43 0v16.69a127.53 127.53 0 00-104 125.33c0 2.43.07 4.83.2 7.23 0 .22 0 .44.05.66 4.24 97-25.92 121.33-33.92 126a15.23 15.23 0 00-1.54.83l-.37.16h.09a15.52 15.52 0 00-7.24 13.13v.88A15.56 15.56 0 00365.5 349h95.38a62.79 62.79 0 00114.58 0h99a15.56 15.56 0 0015.56-15.56v-.88a15.52 15.52 0 00-7.21-13.14z"/><path class="cls-1" d="M682.81 319.42h.07l-.25-.11a15.43 15.43 0 00-1.8-1c-8-4.79-36.55-28.34-34-119a129.66 129.66 0 00.86-14.83 127.53 127.53 0 00-108-126v-16a21.5 21.5 0 00-43 0v16.69a127.53 127.53 0 00-104 125.33c0 2.43.07 4.83.2 7.23 0 .22 0 .44.05.66 4.24 97-25.92 121.33-33.92 126a15.23 15.23 0 00-1.54.83l-.37.16h.09a15.52 15.52 0 00-7.24 13.13v.88A15.56 15.56 0 00365.5 349h95.38a62.79 62.79 0 00114.58 0h99a15.56 15.56 0 0015.56-15.56v-.88a15.52 15.52 0 00-7.21-13.14z"/><g clip-path="url(#clip-path)"><path class="cls-2" d="M504.1 75.5h33.37v25.66h-33.33A1.6 1.6 0 01503 98.5l7.94-9a1.6 1.6 0 000-2.11l-8-9.2a1.61 1.61 0 011.2-2.66z"/><g clip-path="url(#clip-path-2)"><path class="cls-2" transform="rotate(-.07 491.057 82.151)" d="M494.5 67.47h51.01v41.7H494.5z"/></g><rect class="cls-8" x="305.58" y="227.9" width="144.06" height="48.24" rx="13.87"/><rect class="cls-9" x="300.26" y="313.27" width="144.06" height="48.24" rx="13.87"/><rect class="cls-8" x="491.9" y="247.11" width="144.06" height="48.24" rx="13.87"/><path class="cls-4" d="M439.52 327.41h-36.88a11.41 11.41 0 01-9.88-17.11l18.44-31.95 18.45-31.94a11.4 11.4 0 0119.75 0l18.45 31.94 18.44 31.95a11.41 11.41 0 01-9.88 17.11z"/><rect class="cls-10" x="434.09" y="266.86" width="10.87" height="31.37" rx="5.44"/><circle class="cls-10" cx="439.52" cy="306.89" r="5.44"/><path class="cls-11" d="M570 240.7a39.08 39.08 0 1039.08 39.08A39.08 39.08 0 00570 240.7zm0 62.73a23.65 23.65 0 1123.65-23.65A23.64 23.64 0 01570 303.43z"/><path class="cls-12" d="M570.12 240.7h-.52c-.08 5.14-.14 10.48-.17 15.43h.69a23.65 23.65 0 0123.39 20.18c5 0 10.28.06 15.54.12a39.08 39.08 0 00-38.93-35.73z"/><rect class="cls-9" x="645.42" y="293.18" width="144.06" height="48.24" rx="13.87"/><path class="cls-12" d="M531-31h-.52c-.08 5.15-.14 10.48-.17 15.44h.69a23.63 23.63 0 0123.43 20.2c5 0 10.29.06 15.54.13A39.07 39.07 0 00531-31z"/><path class="cls-13" d="M727.64 301.51c-12.27 1.38-19.36-3.49-22.71-6.88a3.4 3.4 0 00-4.84 0c-3.36 3.39-10.44 8.26-22.72 6.88a3.39 3.39 0 00-3.79 3.25c-.32 11.57 1.11 46.12 28.93 55 27.81-8.89 29.25-43.44 28.92-55a3.38 3.38 0 00-3.79-3.25z"/><path class="cls-14" d="M705.91 326l5.88-5.89a2.4 2.4 0 10-3.39-3.4l-5.89 5.89-5.89-5.89a2.4 2.4 0 00-3.4 3.4l5.89 5.89-5.89 5.88a2.4 2.4 0 003.4 3.4l5.89-5.89 5.89 5.89a2.4 2.4 0 103.39-3.4z"/><path class="cls-4" d="M577.77 115.55h-46.4A14.35 14.35 0 01518.94 94l23.2-40.19 23.2-40.18a14.35 14.35 0 0124.86 0l23.2 40.18L636.6 94a14.35 14.35 0 01-12.43 21.52z"/><rect class="cls-10" x="570.93" y="39.38" width="13.68" height="39.46" rx="6.84"/><circle class="cls-10" cx="577.77" cy="89.74" r="6.84"/><rect class="cls-8" x="372.57" y="141.24" width="144.06" height="48.24" rx="13.87"/><g clip-path="url(#clip-path-3)"><path class="cls-16" transform="rotate(-.07 490.992 188.558)" d="M512.03 176.19h12.86v48.23h-12.86z"/></g><path class="cls-4" d="M495.07 183.72h22.3v17.15h-22.28a1.07 1.07 0 01-1.09-1.07 1.09 1.09 0 01.26-.71l5.31-6a1.08 1.08 0 000-1.42l-5.35-6.14a1.07 1.07 0 01.1-1.51 1.1 1.1 0 01.75-.3z"/><g clip-path="url(#clip-path-4)"><path class="cls-11" transform="rotate(-.07 482.812 180.367)" d="M488.65 178.35h34.09v27.87h-34.09z"/></g><g clip-path="url(#clip-path-5)"><g clip-path="url(#clip-path-6)"><g clip-path="url(#clip-path-7)"><path class="cls-22" transform="rotate(-.07 490.917 311.334)" d="M448.94 267.3h139.34v128.62H448.94z"/></g></g></g><g clip-path="url(#clip-path-8)"><path class="cls-16" transform="rotate(-.07 490.882 368.63)" d="M444.73 384.13h147.91v17.15H444.73z"/></g><g clip-path="url(#clip-path-9)"><path class="cls-1" transform="translate(-.41 .6)" d="M490.77 300.53h55.74v100.75h-55.74z"/></g><g clip-path="url(#clip-path-10)"><path transform="translate(-.3 .6)" fill="#919eab" d="M461.73 249.08h113.62v28.94H461.73z"/></g><g clip-path="url(#clip-path-11)"><path class="cls-22" transform="translate(-.27 .6)" d="M461.69 213.71h113.62v46.09H461.69z"/></g><rect class="cls-2" x="360.95" y="110.02" width="144.06" height="48.24" rx="13.87"/><rect class="cls-9" x="265.73" y="213.18" width="144.06" height="48.24" rx="13.87"/><rect class="cls-9" x="587.4" y="191.31" width="144.06" height="48.24" rx="13.87"/><path class="cls-28" d="M624.12 94.81a32.52 32.52 0 1032.52 32.51 32.51 32.51 0 00-32.52-32.51zm5 39.54A11.38 11.38 0 11640.54 123a11.37 11.37 0 01-11.37 11.35z"/><path class="cls-28" d="M594 126.18l-13.23 14.48 6 6 3.63-3.66a3.66 3.66 0 015.17 5.17l-3.68 3.68 13.34 13.47 7.24-8z"/><rect class="cls-13" x="574.12" y="101.16" width="5.78" height="21.81" rx="2.89"/><rect class="cls-13" x="556.65" y="109.25" width="5.78" height="21.81" rx="2.89" transform="rotate(-45 559.542 120.16)"/><rect class="cls-13" x="550" y="126.12" width="5.78" height="21.81" rx="2.89" transform="rotate(-90 552.89 137.03)"/><rect class="cls-13" x="605.77" y="189.88" width="5.78" height="21.81" rx="2.89" transform="rotate(180 608.66 200.785)"/><rect class="cls-13" x="623.23" y="181.79" width="5.78" height="21.81" rx="2.89" transform="rotate(135 626.12 192.696)"/><rect class="cls-13" x="629.88" y="164.92" width="5.78" height="21.81" rx="2.89" transform="rotate(90 632.775 175.825)"/><path class="cls-28" d="M583 161.05l-27.56 27.57a3.66 3.66 0 01-5.18-5.18l27.19-27.18-6.23-5.39-28.18 29.79v20.21l7.79 8.64H569l5.14-4.64V191l12.55.21 6.46-5.84-.7-16.19zM566.79-62.44a32.51 32.51 0 00-32.51 32.51 32.52 32.52 0 0032.51 32.52 32.52 32.52 0 0032.52-32.52 32.51 32.51 0 00-32.52-32.51zm5.05 39.54a11.38 11.38 0 01-11.38-11.37 11.38 11.38 0 0111.38-11.38 11.38 11.38 0 0111.38 11.38 11.38 11.38 0 01-11.38 11.37z"/><path class="cls-28" d="M536.68-31.06l-13.22 14.47 6 6 3.65-3.65a3.66 3.66 0 015.18 0 3.67 3.67 0 010 5.17l-3.68 3.68 13.3 13.5 7.23-8z"/><rect class="cls-13" x="548.44" y="32.63" width="5.78" height="21.81" rx="2.89" transform="rotate(180 551.335 43.535)"/><rect class="cls-13" x="565.9" y="24.54" width="5.78" height="21.81" rx="2.89" transform="rotate(135 568.796 35.446)"/><rect class="cls-13" x="572.56" y="7.67" width="5.78" height="21.81" rx="2.89" transform="rotate(90 575.445 18.575)"/><path class="cls-28" d="M525.72 3.8l-27.57 27.57a3.66 3.66 0 01-5.15-5.18L520.17-1l-6.24-5.39-28.17 29.8v20.21l7.79 8.64h18.11l5.13-4.63v-13.9l12.55.21 6.46-5.84-.7-16.19zM367.28 302.06a32.52 32.52 0 1032.52 32.51 32.5 32.5 0 00-32.52-32.51zm5.05 39.54a11.38 11.38 0 1111.38-11.37 11.38 11.38 0 01-11.38 11.37z"/><path class="cls-28" d="M337.17 333.44L324 347.91l6 6 3.65-3.65a3.66 3.66 0 015.17 5.17l-3.67 3.68 13.34 13.48 7.23-8z"/><rect class="cls-13" x="317.28" y="308.41" width="5.78" height="21.81" rx="2.89"/><rect class="cls-13" x="299.82" y="316.5" width="5.78" height="21.81" rx="2.89" transform="rotate(-45 302.706 327.405)"/><rect class="cls-13" x="293.17" y="333.38" width="5.78" height="21.81" rx="2.89" transform="rotate(-90 296.055 344.285)"/><rect class="cls-13" x="348.93" y="397.13" width="5.78" height="21.81" rx="2.89" transform="rotate(-180 351.82 408.04)"/><rect class="cls-13" x="366.39" y="389.04" width="5.78" height="21.81" rx="2.89" transform="rotate(135 369.283 399.947)"/><rect class="cls-13" x="373.04" y="372.17" width="5.78" height="21.81" rx="2.89" transform="rotate(90 375.935 383.075)"/><path class="cls-28" d="M326.21 368.3l-27.57 27.57a3.66 3.66 0 01-5.17-5.17l27.18-27.19-6.23-5.39-28.17 29.79v20.22l7.79 8.63h18.1l5.14-4.63v-13.9l12.55.21 6.46-5.84-.7-16.19z"/><path class="cls-11" d="M427.55 123.15A45.87 45.87 0 10473.42 169a45.87 45.87 0 00-45.87-45.85zm0 73.62A27.76 27.76 0 11455.3 169a27.75 27.75 0 01-27.75 27.77z"/><path class="cls-12" d="M427.73 123.15h-.61c-.1 6-.17 12.31-.21 18.12h.82A27.76 27.76 0 01455.18 165c5.82 0 12.07.07 18.24.15a45.86 45.86 0 00-45.69-42z"/><path class="cls-11" d="M635 310.8a19.94 19.94 0 00-20 19.93v.79a3.19 3.19 0 003.32 3.09 3.18 3.18 0 003-3.06v-.82a13.54 13.54 0 1127.08 0v.69a3.18 3.18 0 003.18 2.95 3.17 3.17 0 003.16-3.1v-.54A20 20 0 00635 310.8z"/><path class="cls-12" d="M644.93 340.69v-2.48a10.21 10.21 0 00-9.29-10.3 10 10 0 00-10.64 9.95v2.83a3 3 0 00-3 3v13.78a3 3 0 003 3h19.94a3 3 0 003-3v-13.76a3 3 0 00-3.01-3.02zm-5.32 0h-9.3v-2.83a4.65 4.65 0 015.11-4.63 4.8 4.8 0 014.19 4.84z"/><path class="cls-11" d="M635.48 300a32.12 32.12 0 00-32.08 32.09 2.64 2.64 0 002.6 2.64h1a2.69 2.69 0 002.73-2.69 25.7 25.7 0 0151.39-.8c0 .26.28 3.16 3 3 3.51-.17 3.39-2.76 3.38-3A32.12 32.12 0 00635.48 300z"/><path class="cls-13" d="M492.17 68.91c-12.27 1.37-19.36-3.5-22.72-6.89a3.4 3.4 0 00-4.83 0c-3.36 3.39-10.45 8.26-22.72 6.89a3.39 3.39 0 00-3.79 3.24c-.32 11.57 1.11 46.13 28.93 55 27.81-8.89 29.24-43.45 28.92-55a3.39 3.39 0 00-3.79-3.24z"/><path class="cls-14" d="M470.44 93.38l5.88-5.89a2.4 2.4 0 10-3.4-3.39L467 90l-5.89-5.88a2.4 2.4 0 10-3.4 3.39l5.89 5.89-5.89 5.89a2.4 2.4 0 003.4 3.4l5.89-5.91 5.88 5.89a2.4 2.4 0 003.4-3.4z"/><path class="cls-13" d="M654.61 221.74c-10.66 1.19-16.82-3-19.74-6a3 3 0 00-4.2 0c-2.92 2.94-9.07 7.17-19.74 6a2.94 2.94 0 00-3.29 2.82c-.28 10.05 1 40.08 25.13 47.8 24.17-7.72 25.42-37.75 25.14-47.8a3 3 0 00-3.3-2.82z"/><path class="cls-14" d="M635.73 243l5.11-5.11a2.09 2.09 0 00-3-2.95l-5.12 5.11-5.11-5.11a2.09 2.09 0 00-3 2.95l5.12 5.11-5.12 5.12a2.09 2.09 0 003 2.95l5.11-5.11 5.12 5.11a2.09 2.09 0 003-2.95z"/></g></svg>